<?xml version="1.0" encoding="UTF-8"?>
<svg xmlns="http://www.w3.org/2000/svg" xmlns:xlink="http://www.w3.org/1999/xlink" viewBox="0 0 24 24" width="24px" height="24px">
<g id="surface11930934">
<path style=" stroke:none;fill-rule:nonzero;fill:rgb(100%,100%,100%);fill-opacity:1;" d="M 8.992188 12.242188 L 4.863281 12.242188 L 4.863281 13.742188 L 6.863281 13.742188 C 6.699219 14.089844 6.464844 14.390625 6.175781 14.632812 L 6.175781 14.636719 L 6.171875 14.636719 C 5.714844 15.015625 5.128906 15.246094 4.488281 15.246094 C 3.371094 15.246094 2.421875 14.554688 2.039062 13.574219 C 1.921875 13.277344 1.859375 12.953125 1.859375 12.617188 C 1.859375 12.070312 2.023438 11.566406 2.308594 11.148438 L 2.355469 11.082031 C 2.832031 10.417969 3.605469 9.988281 4.484375 9.988281 C 5.1875 9.988281 5.828125 10.261719 6.296875 10.714844 L 7.550781 9.3125 C 6.746094 8.570312 5.671875 8.109375 4.488281 8.109375 C 2.933594 8.109375 1.5625 8.898438 0.75 10.097656 C 0.265625 10.816406 -0.0195312 11.683594 -0.0195312 12.617188 C -0.0195312 13.359375 0.15625 14.054688 0.472656 14.671875 C 1.222656 16.128906 2.738281 17.125 4.484375 17.125 C 5.6875 17.125 6.777344 16.65625 7.585938 15.890625 C 8.453125 15.070312 8.992188 13.90625 8.992188 12.617188 Z M 21.046875 15.351562 L 19.273438 10.695312 L 20.347656 10.695312 L 21.558594 14.238281 L 23.046875 10.695312 L 23.980469 10.695312 C 23.980469 10.695312 21.078125 17.535156 21.054688 17.59375 L 20.121094 17.617188 C 20.136719 17.578125 21.046875 15.351562 21.046875 15.351562 Z M 18.011719 13.550781 C 18.011719 14.128906 17.503906 14.539062 16.832031 14.539062 C 16.304688 14.539062 15.96875 14.296875 15.96875 13.921875 C 15.96875 13.53125 16.289062 13.308594 16.910156 13.273438 L 18.015625 13.191406 Z M 17.09375 10.695312 C 16.042969 10.695312 15.261719 11.277344 15.234375 12.074219 L 16.128906 12.074219 C 16.203125 11.695312 16.566406 11.445312 17.066406 11.445312 C 17.671875 11.445312 18.015625 11.71875 18.015625 12.222656 L 18.015625 12.566406 L 16.773438 12.632812 C 15.625 12.699219 15 13.152344 15 13.945312 C 15 14.742188 15.644531 15.273438 16.566406 15.273438 C 17.1875 15.273438 17.765625 14.96875 18.027344 14.484375 L 18.046875 14.484375 L 18.050781 15.273438 L 18.964844 15.273438 L 18.964844 12.15625 C 18.96875 11.269531 18.230469 10.695312 17.09375 10.695312 Z M 12.558594 12.21875 L 11.339844 12.21875 L 11.339844 9.78125 L 12.558594 9.78125 C 13.429688 9.78125 13.988281 10.191406 13.988281 11 C 13.988281 11.8125 13.433594 12.21875 12.558594 12.21875 Z M 12.851562 8.863281 L 10.425781 8.863281 L 10.425781 15.273438 L 11.339844 15.273438 L 11.339844 13.136719 L 12.816406 13.136719 C 14.089844 13.136719 15 12.25 15 11 C 15 9.75 14.105469 8.863281 12.851562 8.863281 Z M 12.851562 8.863281 "/>
</g>
</svg>
