<?xml version="1.0" encoding="UTF-8"?>
<svg xmlns="http://www.w3.org/2000/svg" xmlns:xlink="http://www.w3.org/1999/xlink" viewBox="0 0 30 30" width="30px" height="30px">
<g id="surface11917407">
<path style=" stroke:none;fill-rule:nonzero;fill:rgb(100%,100%,100%);fill-opacity:1;" d="M 5.988281 9.203125 C 5.488281 9.226562 4.871094 9.542969 4.515625 9.992188 C 4.195312 10.378906 3.917969 11.007812 3.988281 11.597656 C 4.550781 11.644531 5.121094 11.300781 5.472656 10.867188 C 5.820312 10.417969 6.050781 9.816406 5.988281 9.203125 Z M 10.800781 10.402344 L 10.800781 19.402344 L 12.222656 19.402344 L 12.222656 16.402344 L 14.175781 16.402344 C 15.964844 16.402344 17.25 15.15625 17.25 13.402344 C 17.25 11.644531 15.988281 10.402344 14.222656 10.402344 Z M 12.222656 11.597656 L 13.875 11.597656 C 15.101562 11.597656 15.824219 12.261719 15.824219 13.398438 C 15.824219 14.539062 15.109375 15.199219 13.875 15.199219 L 12.222656 15.199219 Z M 5.925781 11.902344 C 5.101562 11.902344 4.511719 12.351562 4.125 12.351562 C 3.734375 12.351562 3.148438 11.90625 2.472656 11.90625 C 1.648438 11.90625 0.84375 12.421875 0.417969 13.179688 C -0.457031 14.6875 0.1875 16.921875 1.035156 18.152344 C 1.449219 18.757812 1.949219 19.402344 2.625 19.402344 C 3.242188 19.378906 3.453125 19.027344 4.199219 19.027344 C 4.953125 19.027344 5.175781 19.402344 5.847656 19.402344 C 6.523438 19.402344 6.933594 18.78125 7.347656 18.175781 C 7.820312 17.484375 8.011719 16.808594 8.027344 16.777344 C 8.015625 16.765625 6.71875 16.265625 6.707031 14.769531 C 6.695312 13.515625 7.726562 12.921875 7.773438 12.886719 C 7.191406 12.019531 6.226562 11.902344 6 11.902344 Z M 20.519531 12.800781 C 19.027344 12.800781 17.921875 13.636719 17.882812 14.789062 L 19.148438 14.789062 C 19.253906 14.242188 19.769531 13.882812 20.480469 13.882812 C 21.339844 13.882812 21.828125 14.277344 21.828125 15 L 21.828125 15.5 L 20.066406 15.59375 C 18.433594 15.691406 17.550781 16.34375 17.550781 17.484375 C 17.550781 18.636719 18.464844 19.402344 19.769531 19.402344 C 20.65625 19.402344 21.476562 18.960938 21.84375 18.265625 L 21.875 18.265625 L 21.875 19.332031 L 23.175781 19.332031 L 23.175781 14.910156 C 23.175781 13.625 22.128906 12.800781 20.519531 12.800781 Z M 23.699219 12.800781 L 26.105469 19.371094 L 25.976562 19.769531 C 25.757812 20.445312 25.40625 20.707031 24.777344 20.707031 C 24.671875 20.707031 24.46875 20.695312 24.375 20.6875 L 24.375 21.765625 C 24.472656 21.789062 24.800781 21.800781 24.902344 21.800781 C 26.285156 21.800781 26.9375 21.277344 27.507812 19.699219 L 30 12.800781 L 28.554688 12.800781 L 26.882812 18.128906 L 26.855469 18.128906 L 25.183594 12.800781 Z M 21.828125 16.402344 L 21.820312 16.921875 C 21.820312 17.753906 21.101562 18.34375 20.148438 18.34375 C 19.398438 18.34375 18.921875 17.992188 18.921875 17.453125 C 18.921875 16.890625 19.382812 16.566406 20.261719 16.515625 Z M 21.828125 16.402344 "/>
</g>
</svg>
