<?xml version="1.0" encoding="UTF-8"?>
<svg xmlns="http://www.w3.org/2000/svg" xmlns:xlink="http://www.w3.org/1999/xlink" width="50px" height="px" viewBox="0 0 50 50" version="1.1">
<g id="surface1">
<path style=" stroke:none;fill-rule:nonzero;fill:rgb(100%,100%,100%);fill-opacity:1;" d="M 25 5 C 13.953125 5 5 13.953125 5 25 C 5 34.371094 11.453125 42.214844 20.152344 44.382812 C 20.058594 44.113281 20 43.800781 20 43.410156 L 20 39.992188 C 19.1875 39.992188 17.828125 39.992188 17.488281 39.992188 C 16.117188 39.992188 14.902344 39.40625 14.3125 38.3125 C 13.65625 37.097656 13.542969 35.238281 11.921875 34.101562 C 11.4375 33.722656 11.804688 33.292969 12.359375 33.351562 C 13.386719 33.640625 14.234375 34.34375 15.035156 35.386719 C 15.832031 36.433594 16.207031 36.667969 17.695312 36.667969 C 18.417969 36.667969 19.496094 36.625 20.511719 36.464844 C 21.058594 35.078125 22.003906 33.800781 23.160156 33.195312 C 16.5 32.511719 13.320312 29.199219 13.320312 24.699219 C 13.320312 22.761719 14.148438 20.890625 15.546875 19.3125 C 15.089844 17.746094 14.511719 14.550781 15.726562 13.332031 C 18.722656 13.332031 20.535156 15.277344 20.96875 15.800781 C 22.460938 15.289062 24.101562 15 25.824219 15 C 27.550781 15 29.199219 15.289062 30.695312 15.804688 C 31.125 15.285156 32.9375 13.332031 35.941406 13.332031 C 37.160156 14.550781 36.578125 17.761719 36.113281 19.324219 C 37.503906 20.898438 38.324219 22.765625 38.324219 24.699219 C 38.324219 29.195312 35.152344 32.507812 28.5 33.195312 C 30.332031 34.148438 31.667969 36.832031 31.667969 38.855469 L 31.667969 43.410156 C 31.667969 43.585938 31.628906 43.710938 31.609375 43.859375 C 39.402344 41.125 45 33.726562 45 25 C 45 13.953125 36.046875 5 25 5 Z M 25 5 "/>
</g>
</svg>
