<?xml version="1.0" encoding="UTF-8"?>
<svg xmlns="http://www.w3.org/2000/svg" xmlns:xlink="http://www.w3.org/1999/xlink" width="50px" height="px" viewBox="0 0 50 50" version="1.1">
<g id="surface1">
<path style=" stroke:none;fill-rule:nonzero;fill:rgb(100%,100%,100%);fill-opacity:1;" d="M 25 5 C 13.953125 5 5 13.953125 5 25 C 5 36.046875 13.953125 45 25 45 C 36.046875 45 45 36.046875 45 25 C 45 13.953125 36.046875 5 25 5 Z M 17.492188 14.003906 C 18.898438 14.003906 19.832031 14.941406 19.832031 16.1875 C 19.832031 17.433594 18.898438 18.367188 17.339844 18.367188 C 15.933594 18.371094 15 17.433594 15 16.1875 C 15 14.941406 15.933594 14.003906 17.492188 14.003906 Z M 20 33.332031 L 15 33.332031 L 15 20 L 20 20 Z M 36.667969 33.332031 L 31.960938 33.332031 L 31.960938 26.046875 C 31.960938 24.03125 30.703125 23.566406 30.234375 23.566406 C 29.765625 23.566406 28.195312 23.875 28.195312 26.046875 C 28.195312 26.355469 28.195312 33.332031 28.195312 33.332031 L 23.332031 33.332031 L 23.332031 20 L 28.195312 20 L 28.195312 21.859375 C 28.824219 20.773438 30.078125 20 32.433594 20 C 34.785156 20 36.667969 21.859375 36.667969 26.046875 Z M 36.667969 33.332031 "/>
</g>
</svg>
